<svg xmlns="http://www.w3.org/2000/svg" xmlns:xlink="http://www.w3.org/1999/xlink"><defs>
        <style>
            .a{fill:#444545}
        </style>
    </defs><symbol id="accademy-ico" viewBox="0 0 154.38 195.33">
    <path d="M77.99.62l-.8-.08-76.69 8v140.57l76.69 45.63 76.69-45.63V8.54zm65.86 142.82l-66.66 39.63-66.66-39.67V85.79l66.37 39.5.12 7.16-45.54-27.1-.07 6.95 45.72 27.48.11 7.35-45.7-27.19-.06 6.95 45.71 27.48 46.15-27.62v-7h-.06v-22.7l20.57-12.28zm0-66.06l-18.24 10.75-8.42 5-40.2-23.97-.06 7 34.31 20.4-.3.18-.74.44-4.88 2.87-28.33-16.89-.06 6.95 22.36 13.29-5.28 3.53-.13.08-16.89-9.95-.06 6.95 11.08 6.53-11.29 6.78-66-39.26L76.86 38.3h0zm0-7l-67-39.51h0L10.57 70.34V17.62l66.62-7 66.66 7z" stroke-miterlimit="10"/>
</symbol><symbol id="arrow-down-ico">
    <path d="M5.5 10L0 0h11"/>
</symbol><symbol id="arrow-up-ico">
    <path d="M5.5 0L0 10h11z"/>
</symbol><symbol id="calendar-ico">
    <path d="M19.251 2.025h-2.845V.648c0-.381-.294-.689-.656-.689-.363 0-.656.308-.656.689v1.377h-3.938V.648c0-.381-.294-.689-.655-.689-.363 0-.657.308-.657.689v1.377H5.906V.648c0-.381-.294-.689-.656-.689-.363 0-.657.308-.657.689v1.377H1.75C.784 2.025 0 2.847 0 3.862v16.302C0 21.179.784 22 1.75 22h17.501c.966 0 1.749-.821 1.749-1.836V3.862c0-1.015-.783-1.837-1.749-1.837zm.437 18.139a.448.448 0 01-.437.459H1.75a.45.45 0 01-.438-.459V3.862a.45.45 0 01.438-.459h2.844v1.378c0 .381.294.689.657.689.362 0 .656-.308.656-.689V3.403h3.938v1.378c0 .381.294.689.657.689.361 0 .655-.308.655-.689V3.403h3.938v1.378c0 .381.293.689.656.689.362 0 .656-.308.656-.689V3.403h2.845c.241 0 .437.206.437.459v16.302z"/>
    <path d="M4.594 8.225h2.625v2.066H4.594zM4.594 11.668h2.625v2.067H4.594zM4.594 15.112h2.625v2.066H4.594zM9.188 15.112h2.625v2.066H9.188zM9.188 11.668h2.625v2.067H9.188zM9.188 8.225h2.625v2.066H9.188zM13.781 15.112h2.625v2.066h-2.625zM13.781 11.668h2.625v2.067h-2.625zM13.781 8.225h2.625v2.066h-2.625z"/>
</symbol><symbol id="checkbox-off-ico">
    <path d="M20 2c.542 0 1 .458 1 1v17c0 .542-.458 1-1 1H3c-.542 0-1-.458-1-1V3c0-.542.458-1 1-1h17m0-2H3C1.35 0 0 1.35 0 3v17c0 1.65 1.35 3 3 3h17c1.65 0 3-1.35 3-3V3c0-1.65-1.35-3-3-3z"/>
</symbol><symbol id="checkbox-on-ico">
    <path d="M7.285 7.486l-2.829 2.829 7.783 7.783L26.171 4.166l-2.828-2.829-11.104 11.102z"/>
    <path d="M21 20c0 .542-.458 1-1 1H3c-.542 0-1-.458-1-1V3c0-.542.458-1 1-1h16.908L21.493.415A2.96 2.96 0 0020 0H3C1.35 0 0 1.35 0 3v17c0 1.65 1.35 3 3 3h17c1.65 0 3-1.35 3-3v-9.829l-2 2V20z"/>
</symbol><symbol id="fullscreen-ico" viewBox="0 0 20 20">
    
    <path class="a" d="M0 0v6h3V3h3V0H0zM3 14H0v6h6v-3H3v-3zM17 0h-3v3h3v3h3V0h-3zM17 17h-3v3h6v-6h-3v3z"/>
</symbol><symbol id="like-ico" viewBox="0 0 22 20">
    <path d="M12.38 3.65l-.63 2.93L11.22 9h8.68v2.06L17 18H8V8l4.37-4.36M13.2 0L6.6 6.6A1.68 1.68 0 006 8v10a2 2 0 002 2h9a2 2 0 001.8-1.2l3-7.1a1.7 1.7 0 00.1-.7V9h.1a2 2 0 00-2-2h-6.3l1-4.6v-.3a2.1 2.1 0 00-.4-1.1l-1.1-1zM4 8H0v12h4V8zm18 1z"/>
</symbol><symbol id="mail-ico" viewBox="0 0 16 12">
    <path d="M8 8a2.22 2.22 0 01-1-.34L0 4v7a1 1 0 001 1h14a1 1 0 001-1V4L9 7.66A2.22 2.22 0 018 8zm7-8H1a1 1 0 00-1 1v.76L8 6l8-4.2V1a1 1 0 00-1-1z"/>
</symbol><symbol id="phone-ico" viewBox="0 0 18 18">
    <path d="M3.6 7.8a15.57 15.57 0 006.6 6.6l2.2-2.2a.8.8 0 011-.2 10.46 10.46 0 003.6.6.94.94 0 011 1V17a.94.94 0 01-1 1A17 17 0 010 1a.94.94 0 011-1h3.5a.94.94 0 011 1 11.33 11.33 0 00.6 3.6 1.23 1.23 0 01-.2 1L3.6 7.8z"/>
</symbol><symbol id="replay-ico" viewBox="0 0 16 20">
    <path d="M8 4V0L3 5l5 5V6a6 6 0 11-6 6H0a8 8 0 108-8z"/>
</symbol><symbol id="subtitles-ico" viewBox="0 0 32 20">
    <path d="M29 0H3a3 3 0 00-3 3v14a3 3 0 003 3h26a3 3 0 003-3V3a3 3 0 00-3-3zM14.41 15.86a9.38 9.38 0 01-1.64.14 6.18 6.18 0 01-2-.32 4.37 4.37 0 01-1.64-1A5.08 5.08 0 018 12.81a7.94 7.94 0 01-.43-2.79 7.65 7.65 0 01.47-2.85 5.25 5.25 0 011.23-1.85 4.42 4.42 0 011.68-1A5.66 5.66 0 0112.77 4a8.87 8.87 0 011.68.14 5.82 5.82 0 011.13.31l-.45 1.92a3.42 3.42 0 00-.9-.27 9 9 0 00-1.26-.08 2.77 2.77 0 00-2.21 1 4.57 4.57 0 00-.84 3 6.33 6.33 0 00.2 1.63 3.7 3.7 0 00.61 1.26 2.67 2.67 0 001 .81 3.06 3.06 0 001.39.29 4.53 4.53 0 001.26-.15 3.46 3.46 0 00.89-.38l.46 1.84a3.34 3.34 0 01-1.32.54zm8.69 0a9.18 9.18 0 01-1.67.16 6.13 6.13 0 01-2-.32 4.37 4.37 0 01-1.64-1 5.1 5.1 0 01-1.14-1.87 8.19 8.19 0 01-.42-2.79 7.65 7.65 0 01.47-2.85 5.24 5.24 0 011.22-1.85 4.58 4.58 0 011.68-1 5.76 5.76 0 011.86-.31 8.68 8.68 0 011.67.14 5.74 5.74 0 011.14.31l-.45 1.92a3.42 3.42 0 00-.9-.27 9 9 0 00-1.27-.08 2.75 2.75 0 00-2.2 1 4.57 4.57 0 00-.84 3 6.33 6.33 0 00.2 1.63 3.51 3.51 0 00.6 1.26 2.75 2.75 0 001 .81 3.1 3.1 0 001.4.29 4.58 4.58 0 001.26-.15 3.62 3.62 0 00.89-.38l.46 1.84a3.33 3.33 0 01-1.32.51z"/>
</symbol></svg>