<svg xmlns="http://www.w3.org/2000/svg" viewBox="0 0 32 20"><path d="M29 0H3a3 3 0 00-3 3v14a3 3 0 003 3h26a3 3 0 003-3V3a3 3 0 00-3-3zM14.41 15.86a9.38 9.38 0 01-1.64.14 6.18 6.18 0 01-2-.32 4.37 4.37 0 01-1.64-1A5.08 5.08 0 018 12.81a7.94 7.94 0 01-.43-2.79 7.65 7.65 0 01.47-2.85 5.25 5.25 0 011.23-1.85 4.42 4.42 0 011.68-1A5.66 5.66 0 0112.77 4a8.87 8.87 0 011.68.14 5.82 5.82 0 011.13.31l-.45 1.92a3.42 3.42 0 00-.9-.27 9 9 0 00-1.26-.08 2.77 2.77 0 00-2.21 1 4.57 4.57 0 00-.84 3 6.33 6.33 0 00.2 1.63 3.7 3.7 0 00.61 1.26 2.67 2.67 0 001 .81 3.06 3.06 0 001.39.29 4.53 4.53 0 001.26-.15 3.46 3.46 0 00.89-.38l.46 1.84a3.34 3.34 0 01-1.32.54zm8.69 0a9.18 9.18 0 01-1.67.16 6.13 6.13 0 01-2-.32 4.37 4.37 0 01-1.64-1 5.1 5.1 0 01-1.14-1.87 8.19 8.19 0 01-.42-2.79 7.65 7.65 0 01.47-2.85 5.24 5.24 0 011.22-1.85 4.58 4.58 0 011.68-1 5.76 5.76 0 011.86-.31 8.68 8.68 0 011.67.14 5.74 5.74 0 011.14.31l-.45 1.92a3.42 3.42 0 00-.9-.27 9 9 0 00-1.27-.08 2.75 2.75 0 00-2.2 1 4.57 4.57 0 00-.84 3 6.33 6.33 0 00.2 1.63 3.51 3.51 0 00.6 1.26 2.75 2.75 0 001 .81 3.1 3.1 0 001.4.29 4.58 4.58 0 001.26-.15 3.62 3.62 0 00.89-.38l.46 1.84a3.33 3.33 0 01-1.32.51z" fill="#444545"/></svg>